<?xml version="1.0" encoding="UTF-8" standalone="no"?>
<!DOCTYPE svg PUBLIC "-//W3C//DTD SVG 1.1//EN"
 "http://www.w3.org/Graphics/SVG/1.1/DTD/svg11.dtd">
<!-- Generated by graphviz version 2.49.3 (20211023.0002)
 -->
<!-- Title: dependency&#45;cruiser output Pages: 1 -->
<svg width="688pt" height="458pt"
 viewBox="0.00 0.00 688.00 458.00" xmlns="http://www.w3.org/2000/svg" xmlns:xlink="http://www.w3.org/1999/xlink">
<g id="graph0" class="graph" transform="scale(1 1) rotate(0) translate(4 454)">
<title>dependency&#45;cruiser output</title>
<polygon fill="white" stroke="transparent" points="-4,4 -4,-454 684,-454 684,4 -4,4"/>
<g id="clust1" class="cluster">
<title>cluster_src</title>
<path fill="#ffffff" stroke="black" stroke-width="2" d="M20,-8C20,-8 660,-8 660,-8 666,-8 672,-14 672,-20 672,-20 672,-430 672,-430 672,-436 666,-442 660,-442 660,-442 20,-442 20,-442 14,-442 8,-436 8,-430 8,-430 8,-20 8,-20 8,-14 14,-8 20,-8"/>
<text text-anchor="middle" x="340" y="-430.8" font-family="Helvetica,sans-Serif" font-weight="bold" font-size="9.00">src</text>
</g>
<g id="clust2" class="cluster">
<title>cluster_src/components</title>
<path fill="#ffffff" stroke="black" stroke-width="2" d="M28,-236C28,-236 251,-236 251,-236 257,-236 263,-242 263,-248 263,-248 263,-404 263,-404 263,-410 257,-416 251,-416 251,-416 28,-416 28,-416 22,-416 16,-410 16,-404 16,-404 16,-248 16,-248 16,-242 22,-236 28,-236"/>
<text text-anchor="middle" x="139.5" y="-404.8" font-family="Helvetica,sans-Serif" font-weight="bold" font-size="9.00">components</text>
</g>
<g id="clust3" class="cluster">
<title>cluster_src/components/atoms</title>
<path fill="#ffffff" stroke="black" stroke-width="2" d="M36,-244C36,-244 243,-244 243,-244 249,-244 255,-250 255,-256 255,-256 255,-378 255,-378 255,-384 249,-390 243,-390 243,-390 36,-390 36,-390 30,-390 24,-384 24,-378 24,-378 24,-256 24,-256 24,-250 30,-244 36,-244"/>
<text text-anchor="middle" x="139.5" y="-378.8" font-family="Helvetica,sans-Serif" font-weight="bold" font-size="9.00">atoms</text>
</g>
<g id="clust4" class="cluster">
<title>cluster_src/components/atoms/Sample</title>
<path fill="#ffffff" stroke="black" stroke-width="2" d="M44,-252C44,-252 235,-252 235,-252 241,-252 247,-258 247,-264 247,-264 247,-352 247,-352 247,-358 241,-364 235,-364 235,-364 44,-364 44,-364 38,-364 32,-358 32,-352 32,-352 32,-264 32,-264 32,-258 38,-252 44,-252"/>
<text text-anchor="middle" x="139.5" y="-352.8" font-family="Helvetica,sans-Serif" font-weight="bold" font-size="9.00">Sample</text>
</g>
<g id="clust5" class="cluster">
<title>cluster_src/store</title>
<path fill="#ffffff" stroke="black" stroke-width="2" d="M294,-74C294,-74 652,-74 652,-74 658,-74 664,-80 664,-86 664,-86 664,-192 664,-192 664,-198 658,-204 652,-204 652,-204 294,-204 294,-204 288,-204 282,-198 282,-192 282,-192 282,-86 282,-86 282,-80 288,-74 294,-74"/>
<text text-anchor="middle" x="473" y="-192.8" font-family="Helvetica,sans-Serif" font-weight="bold" font-size="9.00">store</text>
</g>
<g id="clust6" class="cluster">
<title>cluster_src/store/counter</title>
<path fill="#ffffff" stroke="black" stroke-width="2" d="M364,-82C364,-82 644,-82 644,-82 650,-82 656,-88 656,-94 656,-94 656,-166 656,-166 656,-172 650,-178 644,-178 644,-178 364,-178 364,-178 358,-178 352,-172 352,-166 352,-166 352,-94 352,-94 352,-88 358,-82 364,-82"/>
<text text-anchor="middle" x="504" y="-166.8" font-family="Helvetica,sans-Serif" font-weight="bold" font-size="9.00">counter</text>
</g>
<g id="clust7" class="cluster">
<title>cluster_src/types</title>
<path fill="#ffffff" stroke="black" stroke-width="2" d="M62,-172C62,-172 108,-172 108,-172 114,-172 120,-178 120,-184 120,-184 120,-212 120,-212 120,-218 114,-224 108,-224 108,-224 62,-224 62,-224 56,-224 50,-218 50,-212 50,-212 50,-184 50,-184 50,-178 56,-172 62,-172"/>
<text text-anchor="middle" x="85" y="-212.8" font-family="Helvetica,sans-Serif" font-weight="bold" font-size="9.00">types</text>
</g>
<g id="clust8" class="cluster">
<title>cluster_src/utils</title>
<path fill="#ffffff" stroke="black" stroke-width="2" d="M181,-146C181,-146 236,-146 236,-146 242,-146 248,-152 248,-158 248,-158 248,-216 248,-216 248,-222 242,-228 236,-228 236,-228 181,-228 181,-228 175,-228 169,-222 169,-216 169,-216 169,-158 169,-158 169,-152 175,-146 181,-146"/>
<text text-anchor="middle" x="208.5" y="-216.8" font-family="Helvetica,sans-Serif" font-weight="bold" font-size="9.00">utils</text>
</g>
<!-- src/App.test.tsx -->
<g id="node1" class="node">
<title>src/App.test.tsx</title>
<g id="a_node1"><a xlink:href="src/App.test.tsx" xlink:title="App.test.tsx">
<path fill="#bbfeff" stroke="black" d="M111,-161C111,-161 59,-161 59,-161 56,-161 53,-158 53,-155 53,-155 53,-149 53,-149 53,-146 56,-143 59,-143 59,-143 111,-143 111,-143 114,-143 117,-146 117,-149 117,-149 117,-155 117,-155 117,-158 114,-161 111,-161"/>
<text text-anchor="middle" x="85" y="-149.8" font-family="Helvetica,sans-Serif" font-size="9.00">App.test.tsx</text>
</a>
</g>
</g>
<!-- src/App.tsx -->
<g id="node2" class="node">
<title>src/App.tsx</title>
<g id="a_node2"><a xlink:href="src/App.tsx" xlink:title="App.tsx">
<path fill="#bbfeff" stroke="black" d="M229.5,-138C229.5,-138 187.5,-138 187.5,-138 184.5,-138 181.5,-135 181.5,-132 181.5,-132 181.5,-126 181.5,-126 181.5,-123 184.5,-120 187.5,-120 187.5,-120 229.5,-120 229.5,-120 232.5,-120 235.5,-123 235.5,-126 235.5,-126 235.5,-132 235.5,-132 235.5,-135 232.5,-138 229.5,-138"/>
<text text-anchor="middle" x="208.5" y="-126.8" font-family="Helvetica,sans-Serif" font-size="9.00">App.tsx</text>
</a>
</g>
</g>
<!-- src/App.test.tsx&#45;&gt;src/App.tsx -->
<g id="edge1" class="edge">
<title>src/App.test.tsx&#45;&gt;src/App.tsx</title>
<path fill="none" stroke="#000000" stroke-width="2" stroke-opacity="0.200000" d="M117.29,-146.08C135.1,-142.7 157.38,-138.49 175.33,-135.09"/>
<polygon fill="#000000" fill-opacity="0.200000" stroke="#000000" stroke-width="2" stroke-opacity="0.200000" points="175.74,-137.15 181.25,-133.97 174.96,-133.02 175.74,-137.15"/>
</g>
<!-- src/utils/testUtils -->
<g id="node3" class="node">
<title>src/utils/testUtils</title>
<path fill="#ffffcc" stroke="red" d="M229.5,-202C229.5,-202 187.5,-202 187.5,-202 184.5,-202 181.5,-199 181.5,-196 181.5,-196 181.5,-190 181.5,-190 181.5,-187 184.5,-184 187.5,-184 187.5,-184 229.5,-184 229.5,-184 232.5,-184 235.5,-187 235.5,-190 235.5,-190 235.5,-196 235.5,-196 235.5,-199 232.5,-202 229.5,-202"/>
<text text-anchor="middle" x="208.5" y="-190.8" font-family="Helvetica,sans-Serif" font-size="9.00" fill="red">testUtils</text>
</g>
<!-- src/App.test.tsx&#45;&gt;src/utils/testUtils -->
<g id="edge2" class="edge">
<title>src/App.test.tsx&#45;&gt;src/utils/testUtils</title>
<path fill="none" stroke="#000000" stroke-width="2" stroke-opacity="0.200000" d="M112.51,-161.07C118.39,-163.4 124.5,-166.09 130,-169 136.21,-172.29 136.57,-175.15 143,-178 153.1,-182.48 164.72,-185.71 175.28,-187.99"/>
<polygon fill="#000000" fill-opacity="0.200000" stroke="#000000" stroke-width="2" stroke-opacity="0.200000" points="175.06,-190.09 181.36,-189.23 175.9,-185.98 175.06,-190.09"/>
</g>
<!-- src/store/index.ts -->
<g id="node4" class="node">
<title>src/store/index.ts</title>
<g id="a_node4"><a xlink:href="src/store/index.ts" xlink:title="index.ts">
<path fill="#ddfeff" stroke="black" d="M338,-127C338,-127 296,-127 296,-127 293,-127 290,-124 290,-121 290,-121 290,-115 290,-115 290,-112 293,-109 296,-109 296,-109 338,-109 338,-109 341,-109 344,-112 344,-115 344,-115 344,-121 344,-121 344,-124 341,-127 338,-127"/>
<text text-anchor="middle" x="317" y="-115.8" font-family="Helvetica,sans-Serif" font-size="9.00">index.ts</text>
</a>
</g>
</g>
<!-- src/App.tsx&#45;&gt;src/store/index.ts -->
<g id="edge3" class="edge">
<title>src/App.tsx&#45;&gt;src/store/index.ts</title>
<path fill="none" stroke="#000000" stroke-width="2" stroke-opacity="0.200000" d="M235.55,-126.31C250.12,-124.8 268.41,-122.92 283.86,-121.32"/>
<polygon fill="#000000" fill-opacity="0.200000" stroke="#000000" stroke-width="2" stroke-opacity="0.200000" points="284.09,-123.41 289.85,-120.7 283.66,-119.23 284.09,-123.41"/>
</g>
<!-- src/store/counter/index.ts -->
<g id="node5" class="node">
<title>src/store/counter/index.ts</title>
<g id="a_node5"><a xlink:href="src/store/counter/index.ts" xlink:title="index.ts">
<path fill="#ddfeff" stroke="black" d="M422,-138C422,-138 380,-138 380,-138 377,-138 374,-135 374,-132 374,-132 374,-126 374,-126 374,-123 377,-120 380,-120 380,-120 422,-120 422,-120 425,-120 428,-123 428,-126 428,-126 428,-132 428,-132 428,-135 425,-138 422,-138"/>
<text text-anchor="middle" x="401" y="-126.8" font-family="Helvetica,sans-Serif" font-size="9.00">index.ts</text>
</a>
</g>
</g>
<!-- src/App.tsx&#45;&gt;src/store/counter/index.ts -->
<g id="edge4" class="edge">
<title>src/App.tsx&#45;&gt;src/store/counter/index.ts</title>
<path fill="none" stroke="#000000" stroke-width="2" stroke-opacity="0.200000" d="M235.64,-131.69C249.42,-132.97 266.6,-134.36 282,-135 309.53,-136.14 316.48,-136.47 344,-135 351.63,-134.59 359.82,-133.87 367.51,-133.07"/>
<polygon fill="#000000" fill-opacity="0.200000" stroke="#000000" stroke-width="2" stroke-opacity="0.200000" points="368.1,-135.12 373.84,-132.39 367.64,-130.95 368.1,-135.12"/>
</g>
<!-- src/store/index.ts&#45;&gt;src/store/counter/index.ts -->
<g id="edge17" class="edge">
<title>src/store/index.ts&#45;&gt;src/store/counter/index.ts</title>
<path fill="none" stroke="#000000" stroke-width="2" stroke-opacity="0.200000" d="M344.4,-121.54C351.79,-122.53 359.9,-123.62 367.6,-124.65"/>
<polygon fill="#000000" fill-opacity="0.200000" stroke="#000000" stroke-width="2" stroke-opacity="0.200000" points="367.71,-126.79 373.93,-125.5 368.27,-122.62 367.71,-126.79"/>
</g>
<!-- src/store/counter/counterActions.ts -->
<g id="node17" class="node">
<title>src/store/counter/counterActions.ts</title>
<g id="a_node17"><a xlink:href="src/store/counter/counterActions.ts" xlink:title="counterActions.ts">
<path fill="#ddfeff" stroke="black" d="M642,-141C642,-141 568,-141 568,-141 565,-141 562,-138 562,-135 562,-135 562,-129 562,-129 562,-126 565,-123 568,-123 568,-123 642,-123 642,-123 645,-123 648,-126 648,-129 648,-129 648,-135 648,-135 648,-138 645,-141 642,-141"/>
<text text-anchor="middle" x="605" y="-129.8" font-family="Helvetica,sans-Serif" font-size="9.00">counterActions.ts</text>
</a>
</g>
</g>
<!-- src/store/counter/index.ts&#45;&gt;src/store/counter/counterActions.ts -->
<g id="edge14" class="edge">
<title>src/store/counter/index.ts&#45;&gt;src/store/counter/counterActions.ts</title>
<path fill="none" stroke="#000000" stroke-width="2" stroke-opacity="0.200000" d="M428.15,-128.41C436.7,-128.24 446.26,-128.08 455,-128 496.78,-127.61 507.25,-126.48 549,-128 551.24,-128.08 553.52,-128.18 555.83,-128.3"/>
<polygon fill="#000000" fill-opacity="0.200000" stroke="#000000" stroke-width="2" stroke-opacity="0.200000" points="555.87,-130.4 561.98,-128.63 556.1,-126.21 555.87,-130.4"/>
</g>
<!-- src/store/counter/counterSelectors.ts -->
<g id="node19" class="node">
<title>src/store/counter/counterSelectors.ts</title>
<g id="a_node19"><a xlink:href="src/store/counter/counterSelectors.ts" xlink:title="counterSelectors.ts">
<path fill="#ddfeff" stroke="black" d="M543,-108C543,-108 461,-108 461,-108 458,-108 455,-105 455,-102 455,-102 455,-96 455,-96 455,-93 458,-90 461,-90 461,-90 543,-90 543,-90 546,-90 549,-93 549,-96 549,-96 549,-102 549,-102 549,-105 546,-108 543,-108"/>
<text text-anchor="middle" x="502" y="-96.8" font-family="Helvetica,sans-Serif" font-size="9.00">counterSelectors.ts</text>
</a>
</g>
</g>
<!-- src/store/counter/index.ts&#45;&gt;src/store/counter/counterSelectors.ts -->
<g id="edge15" class="edge">
<title>src/store/counter/index.ts&#45;&gt;src/store/counter/counterSelectors.ts</title>
<path fill="none" stroke="#000000" stroke-width="2" stroke-opacity="0.200000" d="M428.01,-121.12C439.33,-117.69 452.79,-113.61 465.05,-109.89"/>
<polygon fill="#000000" fill-opacity="0.200000" stroke="#000000" stroke-width="2" stroke-opacity="0.200000" points="465.82,-111.85 470.96,-108.1 464.61,-107.83 465.82,-111.85"/>
</g>
<!-- src/store/counter/counterSlice.ts -->
<g id="node20" class="node">
<title>src/store/counter/counterSlice.ts</title>
<g id="a_node20"><a xlink:href="src/store/counter/counterSlice.ts" xlink:title="counterSlice.ts">
<path fill="#ddfeff" stroke="black" d="M534,-152C534,-152 470,-152 470,-152 467,-152 464,-149 464,-146 464,-146 464,-140 464,-140 464,-137 467,-134 470,-134 470,-134 534,-134 534,-134 537,-134 540,-137 540,-140 540,-140 540,-146 540,-146 540,-149 537,-152 534,-152"/>
<text text-anchor="middle" x="502" y="-140.8" font-family="Helvetica,sans-Serif" font-size="9.00">counterSlice.ts</text>
</a>
</g>
</g>
<!-- src/store/counter/index.ts&#45;&gt;src/store/counter/counterSlice.ts -->
<g id="edge16" class="edge">
<title>src/store/counter/index.ts&#45;&gt;src/store/counter/counterSlice.ts</title>
<path fill="none" stroke="#000000" stroke-width="2" stroke-opacity="0.200000" d="M428.01,-132.68C437.21,-133.98 447.81,-135.48 458.03,-136.92"/>
<polygon fill="#000000" fill-opacity="0.200000" stroke="#000000" stroke-width="2" stroke-opacity="0.200000" points="457.76,-139.01 464,-137.77 458.35,-134.85 457.76,-139.01"/>
</g>
<!-- src/components/atoms/Sample/Sample.stories.tsx -->
<g id="node6" class="node">
<title>src/components/atoms/Sample/Sample.stories.tsx</title>
<g id="a_node6"><a xlink:href="src/components/atoms/Sample/Sample.stories.tsx" xlink:title="Sample.stories.tsx">
<path fill="#bbfeff" stroke="black" d="M124,-338C124,-338 46,-338 46,-338 43,-338 40,-335 40,-332 40,-332 40,-326 40,-326 40,-323 43,-320 46,-320 46,-320 124,-320 124,-320 127,-320 130,-323 130,-326 130,-326 130,-332 130,-332 130,-335 127,-338 124,-338"/>
<text text-anchor="middle" x="85" y="-326.8" font-family="Helvetica,sans-Serif" font-size="9.00">Sample.stories.tsx</text>
</a>
</g>
</g>
<!-- src/components/atoms/Sample/Sample.tsx -->
<g id="node7" class="node">
<title>src/components/atoms/Sample/Sample.tsx</title>
<g id="a_node7"><a xlink:href="src/components/atoms/Sample/Sample.tsx" xlink:title="Sample.tsx">
<path fill="#bbfeff" stroke="black" d="M233,-308C233,-308 184,-308 184,-308 181,-308 178,-305 178,-302 178,-302 178,-296 178,-296 178,-293 181,-290 184,-290 184,-290 233,-290 233,-290 236,-290 239,-293 239,-296 239,-296 239,-302 239,-302 239,-305 236,-308 233,-308"/>
<text text-anchor="middle" x="208.5" y="-296.8" font-family="Helvetica,sans-Serif" font-size="9.00">Sample.tsx</text>
</a>
</g>
</g>
<!-- src/components/atoms/Sample/Sample.stories.tsx&#45;&gt;src/components/atoms/Sample/Sample.tsx -->
<g id="edge5" class="edge">
<title>src/components/atoms/Sample/Sample.stories.tsx&#45;&gt;src/components/atoms/Sample/Sample.tsx</title>
<path fill="none" stroke="#000000" stroke-width="2" stroke-opacity="0.200000" d="M122.45,-320C138,-316.16 156.1,-311.69 171.59,-307.87"/>
<polygon fill="#000000" fill-opacity="0.200000" stroke="#000000" stroke-width="2" stroke-opacity="0.200000" points="172.29,-309.86 177.61,-306.38 171.28,-305.78 172.29,-309.86"/>
</g>
<!-- src/components/atoms/Sample/Sample.test.tsx -->
<g id="node8" class="node">
<title>src/components/atoms/Sample/Sample.test.tsx</title>
<g id="a_node8"><a xlink:href="src/components/atoms/Sample/Sample.test.tsx" xlink:title="Sample.test.tsx">
<path fill="#bbfeff" stroke="black" d="M118,-308C118,-308 52,-308 52,-308 49,-308 46,-305 46,-302 46,-302 46,-296 46,-296 46,-293 49,-290 52,-290 52,-290 118,-290 118,-290 121,-290 124,-293 124,-296 124,-296 124,-302 124,-302 124,-305 121,-308 118,-308"/>
<text text-anchor="middle" x="85" y="-296.8" font-family="Helvetica,sans-Serif" font-size="9.00">Sample.test.tsx</text>
</a>
</g>
</g>
<!-- src/components/atoms/Sample/Sample.test.tsx&#45;&gt;src/components/atoms/Sample/Sample.tsx -->
<g id="edge6" class="edge">
<title>src/components/atoms/Sample/Sample.test.tsx&#45;&gt;src/components/atoms/Sample/Sample.tsx</title>
<path fill="none" stroke="#000000" stroke-width="2" stroke-opacity="0.200000" d="M124.11,-299C139.21,-299 156.49,-299 171.39,-299"/>
<polygon fill="#000000" fill-opacity="0.200000" stroke="#000000" stroke-width="2" stroke-opacity="0.200000" points="171.62,-301.1 177.62,-299 171.62,-296.9 171.62,-301.1"/>
</g>
<!-- src/components/atoms/Sample/index.ts -->
<g id="node9" class="node">
<title>src/components/atoms/Sample/index.ts</title>
<g id="a_node9"><a xlink:href="src/components/atoms/Sample/index.ts" xlink:title="index.ts">
<path fill="#ddfeff" stroke="black" d="M106,-278C106,-278 64,-278 64,-278 61,-278 58,-275 58,-272 58,-272 58,-266 58,-266 58,-263 61,-260 64,-260 64,-260 106,-260 106,-260 109,-260 112,-263 112,-266 112,-266 112,-272 112,-272 112,-275 109,-278 106,-278"/>
<text text-anchor="middle" x="85" y="-266.8" font-family="Helvetica,sans-Serif" font-size="9.00">index.ts</text>
</a>
</g>
</g>
<!-- src/components/atoms/Sample/index.ts&#45;&gt;src/components/atoms/Sample/Sample.tsx -->
<g id="edge7" class="edge">
<title>src/components/atoms/Sample/index.ts&#45;&gt;src/components/atoms/Sample/Sample.tsx</title>
<path fill="none" stroke="#000000" stroke-width="2" stroke-opacity="0.200000" d="M112.06,-275.44C129.36,-279.7 152.28,-285.37 171.33,-290.07"/>
<polygon fill="#000000" fill-opacity="0.200000" stroke="#000000" stroke-width="2" stroke-opacity="0.200000" points="171.3,-292.22 177.63,-291.62 172.31,-288.15 171.3,-292.22"/>
</g>
<!-- src/index.css -->
<g id="node10" class="node">
<title>src/index.css</title>
<g id="a_node10"><a xlink:href="src/index.css" xlink:title="index.css">
<path fill="#ffffcc" stroke="black" d="M229.5,-78C229.5,-78 187.5,-78 187.5,-78 184.5,-78 181.5,-75 181.5,-72 181.5,-72 181.5,-66 181.5,-66 181.5,-63 184.5,-60 187.5,-60 187.5,-60 229.5,-60 229.5,-60 232.5,-60 235.5,-63 235.5,-66 235.5,-66 235.5,-72 235.5,-72 235.5,-75 232.5,-78 229.5,-78"/>
<text text-anchor="middle" x="208.5" y="-66.8" font-family="Helvetica,sans-Serif" font-size="9.00">index.css</text>
</a>
</g>
</g>
<!-- src/index.tsx -->
<g id="node11" class="node">
<title>src/index.tsx</title>
<g id="a_node11"><a xlink:href="src/index.tsx" xlink:title="index.tsx">
<path fill="#bbfeff" stroke="black" d="M106,-124C106,-124 64,-124 64,-124 61,-124 58,-121 58,-118 58,-118 58,-112 58,-112 58,-109 61,-106 64,-106 64,-106 106,-106 106,-106 109,-106 112,-109 112,-112 112,-112 112,-118 112,-118 112,-121 109,-124 106,-124"/>
<text text-anchor="middle" x="85" y="-112.8" font-family="Helvetica,sans-Serif" font-size="9.00">index.tsx</text>
</a>
</g>
</g>
<!-- src/index.tsx&#45;&gt;src/App.tsx -->
<g id="edge8" class="edge">
<title>src/index.tsx&#45;&gt;src/App.tsx</title>
<path fill="none" stroke="#000000" stroke-width="2" stroke-opacity="0.200000" d="M112.06,-118C130.56,-120.13 155.51,-123.01 175.26,-125.29"/>
<polygon fill="#000000" fill-opacity="0.200000" stroke="#000000" stroke-width="2" stroke-opacity="0.200000" points="175.28,-127.4 181.48,-126 175.76,-123.23 175.28,-127.4"/>
</g>
<!-- src/index.tsx&#45;&gt;src/store/index.ts -->
<g id="edge12" class="edge">
<title>src/index.tsx&#45;&gt;src/store/index.ts</title>
<path fill="none" stroke="#000000" stroke-width="2" stroke-opacity="0.200000" d="M112.12,-110.6C118.69,-108.38 125.22,-105.04 130,-100 144.62,-84.58 126.06,-66.82 143,-54 166.22,-36.44 248.38,-40.17 274,-54 293.2,-64.37 305.05,-87.77 311.08,-103.21"/>
<polygon fill="#000000" fill-opacity="0.200000" stroke="#000000" stroke-width="2" stroke-opacity="0.200000" points="309.13,-103.99 313.18,-108.9 313.07,-102.54 309.13,-103.99"/>
</g>
<!-- src/index.tsx&#45;&gt;src/index.css -->
<g id="edge9" class="edge">
<title>src/index.tsx&#45;&gt;src/index.css</title>
<path fill="none" stroke="#000000" stroke-width="2" stroke-opacity="0.200000" d="M112.28,-108.71C118.42,-106.54 124.7,-103.69 130,-100 137.52,-94.76 135.23,-88.86 143,-84 152.62,-77.99 164.42,-74.38 175.28,-72.22"/>
<polygon fill="#000000" fill-opacity="0.200000" stroke="#000000" stroke-width="2" stroke-opacity="0.200000" points="175.66,-74.28 181.19,-71.16 174.92,-70.15 175.66,-74.28"/>
</g>
<!-- src/reportWebVitals.ts -->
<g id="node12" class="node">
<title>src/reportWebVitals.ts</title>
<g id="a_node12"><a xlink:href="src/reportWebVitals.ts" xlink:title="reportWebVitals.ts">
<path fill="#ddfeff" stroke="black" d="M247.5,-108C247.5,-108 169.5,-108 169.5,-108 166.5,-108 163.5,-105 163.5,-102 163.5,-102 163.5,-96 163.5,-96 163.5,-93 166.5,-90 169.5,-90 169.5,-90 247.5,-90 247.5,-90 250.5,-90 253.5,-93 253.5,-96 253.5,-96 253.5,-102 253.5,-102 253.5,-105 250.5,-108 247.5,-108"/>
<text text-anchor="middle" x="208.5" y="-96.8" font-family="Helvetica,sans-Serif" font-size="9.00">reportWebVitals.ts</text>
</a>
</g>
</g>
<!-- src/index.tsx&#45;&gt;src/reportWebVitals.ts -->
<g id="edge10" class="edge">
<title>src/index.tsx&#45;&gt;src/reportWebVitals.ts</title>
<path fill="none" stroke="#000000" stroke-width="2" stroke-opacity="0.200000" d="M112.06,-111.57C125.24,-109.83 141.68,-107.67 157.19,-105.62"/>
<polygon fill="#000000" fill-opacity="0.200000" stroke="#000000" stroke-width="2" stroke-opacity="0.200000" points="157.64,-107.68 163.31,-104.82 157.09,-103.52 157.64,-107.68"/>
</g>
<!-- src/serviceWorkerRegistration.ts -->
<g id="node13" class="node">
<title>src/serviceWorkerRegistration.ts</title>
<g id="a_node13"><a xlink:href="src/serviceWorkerRegistration.ts" xlink:title="serviceWorkerRegistration.ts">
<path fill="#ddfeff" stroke="black" d="M268,-34C268,-34 149,-34 149,-34 146,-34 143,-31 143,-28 143,-28 143,-22 143,-22 143,-19 146,-16 149,-16 149,-16 268,-16 268,-16 271,-16 274,-19 274,-22 274,-22 274,-28 274,-28 274,-31 271,-34 268,-34"/>
<text text-anchor="middle" x="208.5" y="-22.8" font-family="Helvetica,sans-Serif" font-size="9.00">serviceWorkerRegistration.ts</text>
</a>
</g>
</g>
<!-- src/index.tsx&#45;&gt;src/serviceWorkerRegistration.ts -->
<g id="edge11" class="edge">
<title>src/index.tsx&#45;&gt;src/serviceWorkerRegistration.ts</title>
<path fill="none" stroke="#000000" stroke-width="2" stroke-opacity="0.200000" d="M112.29,-110.76C118.86,-108.54 125.35,-105.16 130,-100 147.39,-80.69 125.07,-61.81 143,-43 145.05,-40.85 147.33,-38.95 149.78,-37.27"/>
<polygon fill="#000000" fill-opacity="0.200000" stroke="#000000" stroke-width="2" stroke-opacity="0.200000" points="150.95,-39.02 155.01,-34.13 148.79,-35.42 150.95,-39.02"/>
</g>
<!-- src/react&#45;app&#45;env.d.ts -->
<g id="node14" class="node">
<title>src/react&#45;app&#45;env.d.ts</title>
<g id="a_node14"><a xlink:href="src/react-app-env.d.ts" xlink:title="react&#45;app&#45;env.d.ts">
<path fill="#ccffcc" stroke="black" d="M123,-94C123,-94 47,-94 47,-94 44,-94 41,-91 41,-88 41,-88 41,-82 41,-82 41,-79 44,-76 47,-76 47,-76 123,-76 123,-76 126,-76 129,-79 129,-82 129,-82 129,-88 129,-88 129,-91 126,-94 123,-94"/>
<text text-anchor="middle" x="85" y="-82.8" font-family="Helvetica,sans-Serif" font-size="9.00">react&#45;app&#45;env.d.ts</text>
</a>
</g>
</g>
<!-- src/service&#45;worker.ts -->
<g id="node15" class="node">
<title>src/service&#45;worker.ts</title>
<g id="a_node15"><a xlink:href="src/service-worker.ts" xlink:title="service&#45;worker.ts">
<path fill="#ccffcc" stroke="black" d="M121,-64C121,-64 49,-64 49,-64 46,-64 43,-61 43,-58 43,-58 43,-52 43,-52 43,-49 46,-46 49,-46 49,-46 121,-46 121,-46 124,-46 127,-49 127,-52 127,-52 127,-58 127,-58 127,-61 124,-64 121,-64"/>
<text text-anchor="middle" x="85" y="-52.8" font-family="Helvetica,sans-Serif" font-size="9.00">service&#45;worker.ts</text>
</a>
</g>
</g>
<!-- src/setupTests.ts -->
<g id="node16" class="node">
<title>src/setupTests.ts</title>
<g id="a_node16"><a xlink:href="src/setupTests.ts" xlink:title="setupTests.ts">
<path fill="#ccffcc" stroke="black" d="M113.5,-34C113.5,-34 56.5,-34 56.5,-34 53.5,-34 50.5,-31 50.5,-28 50.5,-28 50.5,-22 50.5,-22 50.5,-19 53.5,-16 56.5,-16 56.5,-16 113.5,-16 113.5,-16 116.5,-16 119.5,-19 119.5,-22 119.5,-22 119.5,-28 119.5,-28 119.5,-31 116.5,-34 113.5,-34"/>
<text text-anchor="middle" x="85" y="-22.8" font-family="Helvetica,sans-Serif" font-size="9.00">setupTests.ts</text>
</a>
</g>
</g>
<!-- src/store/counter/counterHooks.ts -->
<g id="node18" class="node">
<title>src/store/counter/counterHooks.ts</title>
<g id="a_node18"><a xlink:href="src/store/counter/counterHooks.ts" xlink:title="counterHooks.ts">
<path fill="#ccffcc" stroke="black" d="M436,-108C436,-108 366,-108 366,-108 363,-108 360,-105 360,-102 360,-102 360,-96 360,-96 360,-93 363,-90 366,-90 366,-90 436,-90 436,-90 439,-90 442,-93 442,-96 442,-96 442,-102 442,-102 442,-105 439,-108 436,-108"/>
<text text-anchor="middle" x="401" y="-96.8" font-family="Helvetica,sans-Serif" font-size="9.00">counterHooks.ts</text>
</a>
</g>
</g>
<!-- src/store/counter/counterSlice.ts&#45;&gt;src/store/counter/counterActions.ts -->
<g id="edge13" class="edge">
<title>src/store/counter/counterSlice.ts&#45;&gt;src/store/counter/counterActions.ts</title>
<path fill="none" stroke="#000000" stroke-width="2" stroke-opacity="0.200000" d="M540.04,-138.97C545.13,-138.41 550.43,-137.83 555.69,-137.26"/>
<polygon fill="#000000" fill-opacity="0.200000" stroke="#000000" stroke-width="2" stroke-opacity="0.200000" points="556.11,-139.33 561.85,-136.59 555.65,-135.15 556.11,-139.33"/>
</g>
<!-- src/types/index.ts -->
<g id="node21" class="node">
<title>src/types/index.ts</title>
<g id="a_node21"><a xlink:href="src/types/index.ts" xlink:title="index.ts">
<path fill="#ccffcc" stroke="black" d="M106,-198C106,-198 64,-198 64,-198 61,-198 58,-195 58,-192 58,-192 58,-186 58,-186 58,-183 61,-180 64,-180 64,-180 106,-180 106,-180 109,-180 112,-183 112,-186 112,-186 112,-192 112,-192 112,-195 109,-198 106,-198"/>
<text text-anchor="middle" x="85" y="-186.8" font-family="Helvetica,sans-Serif" font-size="9.00">index.ts</text>
</a>
</g>
</g>
<!-- src/utils/testUtils.tsx -->
<g id="node22" class="node">
<title>src/utils/testUtils.tsx</title>
<g id="a_node22"><a xlink:href="src/utils/testUtils.tsx" xlink:title="testUtils.tsx">
<path fill="#bbfeff" stroke="black" d="M234,-172C234,-172 183,-172 183,-172 180,-172 177,-169 177,-166 177,-166 177,-160 177,-160 177,-157 180,-154 183,-154 183,-154 234,-154 234,-154 237,-154 240,-157 240,-160 240,-160 240,-166 240,-166 240,-169 237,-172 234,-172"/>
<text text-anchor="middle" x="208.5" y="-160.8" font-family="Helvetica,sans-Serif" font-size="9.00">testUtils.tsx</text>
</a>
</g>
</g>
<!-- src/utils/testUtils.tsx&#45;&gt;src/store/index.ts -->
<g id="edge18" class="edge">
<title>src/utils/testUtils.tsx&#45;&gt;src/store/index.ts</title>
<path fill="none" stroke="#000000" stroke-width="2" stroke-opacity="0.200000" d="M240.24,-159.71C251.23,-157.78 263.49,-154.76 274,-150 284.04,-145.46 293.92,-138.12 301.57,-131.62"/>
<polygon fill="#000000" fill-opacity="0.200000" stroke="#000000" stroke-width="2" stroke-opacity="0.200000" points="303.36,-132.83 306.48,-127.29 300.59,-129.68 303.36,-132.83"/>
</g>
</g>
</svg>
